<svg width="196" height="58" viewBox="0 0 196 58" fill="none" xmlns="http://www.w3.org/2000/svg">
<rect width="196" height="58" rx="29" fill="black"/>
<path d="M58.2747 27.6501C58.2877 26.6343 58.5552 25.6383 59.0522 24.7548C59.5492 23.8713 60.2596 23.129 61.1174 22.597C60.5725 21.8118 59.8536 21.1656 59.0179 20.7098C58.1821 20.254 57.2526 20.001 56.303 19.971C54.2774 19.7565 52.3137 21.1939 51.2814 21.1939C50.2292 21.1939 48.64 19.9923 46.9286 20.0279C45.8217 20.0639 44.7428 20.3887 43.7973 20.9705C42.8517 21.5523 42.0716 22.3713 41.5331 23.3477C39.2002 27.4228 40.9403 33.4118 43.1751 36.7058C44.2931 38.3187 45.5999 40.1205 47.3097 40.0566C48.9828 39.9866 49.6077 38.9802 51.6274 38.9802C53.6283 38.9802 54.2146 40.0566 55.9591 40.016C57.7545 39.9866 58.8856 38.3958 59.9645 36.7676C60.7679 35.6183 61.386 34.3481 61.7961 33.004C60.7531 32.5589 59.8629 31.8138 59.2367 30.8617C58.6105 29.9097 58.276 28.7927 58.2747 27.6501Z" fill="white"/>
<path d="M54.9787 17.8045C55.9577 16.6184 56.4399 15.0939 56.3232 13.5547C54.8276 13.7132 53.4461 14.4347 52.4539 15.5752C51.9688 16.1324 51.5973 16.7807 51.3606 17.4829C51.1239 18.1851 51.0266 18.9275 51.0743 19.6677C51.8224 19.6755 52.5624 19.5118 53.2387 19.1891C53.915 18.8663 54.51 18.3929 54.9787 17.8045Z" fill="white"/>
<path d="M78.3468 36.1377H72.8561L71.5375 40.0664H69.2119L74.4126 25.5312H76.8289L82.0295 40.0664H79.6643L78.3468 36.1377ZM73.4248 34.3248H77.7771L75.6315 27.9488H75.5714L73.4248 34.3248Z" fill="white"/>
<path d="M93.2614 34.7671C93.2614 38.0601 91.5146 40.1757 88.8786 40.1757C88.2108 40.2109 87.5467 40.0557 86.9624 39.7279C86.378 39.4 85.8969 38.9127 85.5742 38.3218H85.5244V43.5703H83.3687V29.4683H85.4553V31.2308H85.4949C85.8324 30.6427 86.3216 30.1579 86.9104 29.828C87.4993 29.4982 88.1657 29.3355 88.8389 29.3574C91.5044 29.3574 93.2614 31.4834 93.2614 34.7671ZM91.0456 34.7671C91.0456 32.6218 89.9468 31.2113 88.2703 31.2113C86.6232 31.2113 85.5153 32.6515 85.5153 34.7671C85.5153 36.9022 86.6232 38.3321 88.2703 38.3321C89.9468 38.3321 91.0456 36.9319 91.0456 34.7671H91.0456Z" fill="white"/>
<path d="M104.821 34.7671C104.821 38.0601 103.073 40.1757 100.437 40.1757C99.7694 40.2109 99.1054 40.0557 98.521 39.7279C97.9366 39.4 97.4555 38.9127 97.1328 38.3218H97.083V43.5703H94.9272V29.4683H97.0139V31.2308H97.0535C97.391 30.6427 97.8802 30.1579 98.469 29.828C99.0579 29.4982 99.7244 29.3355 100.398 29.3574C103.063 29.3574 104.821 31.4834 104.821 34.7671ZM102.604 34.7671C102.604 32.6218 101.505 31.2113 99.8289 31.2113C98.1818 31.2113 97.0739 32.6515 97.0739 34.7671C97.0739 36.9022 98.1818 38.3321 99.8289 38.3321C101.505 38.3321 102.604 36.9319 102.604 34.7671Z" fill="white"/>
<path d="M112.458 36.0138C112.618 37.4548 114.006 38.4009 115.902 38.4009C117.719 38.4009 119.026 37.4547 119.026 36.1554C119.026 35.0275 118.238 34.3522 116.371 33.8894L114.504 33.4357C111.859 32.7912 110.631 31.5433 110.631 29.5184C110.631 27.0112 112.797 25.2891 115.871 25.2891C118.916 25.2891 121.003 27.0112 121.073 29.5184H118.897C118.767 28.0682 117.578 27.1929 115.842 27.1929C114.105 27.1929 112.917 28.0785 112.917 29.3675C112.917 30.3949 113.676 30.9994 115.533 31.4621L117.12 31.8552C120.075 32.5603 121.302 33.7579 121.302 35.8834C121.302 38.602 119.156 40.3047 115.742 40.3047C112.548 40.3047 110.391 38.642 110.251 36.0137L112.458 36.0138Z" fill="white"/>
<path d="M125.959 26.9609V29.4684H127.956V31.1908H125.959V37.0321C125.959 37.9396 126.358 38.3624 127.236 38.3624C127.473 38.3583 127.71 38.3415 127.945 38.3121V40.0242C127.551 40.0986 127.15 40.1323 126.748 40.1247C124.622 40.1247 123.793 39.319 123.793 37.2641V31.1908H122.266V29.4684H123.793V26.9609H125.959Z" fill="white"/>
<path d="M129.11 34.7656C129.11 31.4312 131.056 29.3359 134.091 29.3359C137.136 29.3359 139.073 31.4312 139.073 34.7656C139.073 38.1092 137.146 40.1953 134.091 40.1953C131.037 40.1953 129.11 38.1092 129.11 34.7656ZM136.876 34.7656C136.876 32.4783 135.837 31.1283 134.091 31.1283C132.344 31.1283 131.305 32.4886 131.305 34.7656C131.305 37.0621 132.344 38.4018 134.091 38.4018C135.837 38.4018 136.876 37.0621 136.876 34.7656H136.876Z" fill="white"/>
<path d="M140.85 29.4682H142.906V31.2721H142.956C143.095 30.7087 143.422 30.2108 143.882 29.8621C144.342 29.5134 144.907 29.3352 145.482 29.3573C145.73 29.3564 145.978 29.3837 146.22 29.4385V31.4733C145.907 31.3766 145.579 31.3322 145.252 31.3418C144.938 31.329 144.626 31.3847 144.336 31.5052C144.047 31.6256 143.786 31.8079 143.573 32.0396C143.359 32.2712 143.198 32.5467 143.1 32.8472C143.002 33.1476 142.97 33.4659 143.005 33.7802V40.0664H140.85L140.85 29.4682Z" fill="white"/>
<path d="M156.161 36.9512C155.871 38.875 154.014 40.1953 151.638 40.1953C148.583 40.1953 146.687 38.1297 146.687 34.8159C146.687 31.4918 148.593 29.3359 151.548 29.3359C154.453 29.3359 156.281 31.3501 156.281 34.5633V35.3086H148.863V35.44C148.829 35.8301 148.877 36.223 149.005 36.5927C149.133 36.9624 149.337 37.3004 149.604 37.5843C149.872 37.8682 150.196 38.0915 150.555 38.2394C150.914 38.3872 151.301 38.4562 151.688 38.4418C152.198 38.49 152.709 38.3709 153.146 38.1023C153.583 37.8338 153.922 37.4301 154.114 36.9512L156.161 36.9512ZM148.873 33.7883H154.124C154.143 33.4376 154.09 33.0867 153.969 32.7575C153.848 32.4283 153.66 32.128 153.418 31.8755C153.176 31.6229 152.885 31.4235 152.563 31.2899C152.242 31.1562 151.896 31.091 151.548 31.0986C151.197 31.0965 150.849 31.1645 150.524 31.2988C150.199 31.4332 149.904 31.631 149.655 31.8811C149.407 32.1312 149.209 32.4285 149.075 32.7558C148.941 33.0831 148.872 33.434 148.873 33.7883V33.7883Z" fill="white"/>
<path d="M73.1558 14.59C73.6078 14.5572 74.0613 14.6261 74.4836 14.7917C74.906 14.9572 75.2867 15.2153 75.5982 15.5473C75.9098 15.8793 76.1444 16.2769 76.2852 16.7115C76.4261 17.146 76.4696 17.6067 76.4126 18.0603C76.4126 20.2916 75.2175 21.5742 73.1558 21.5742H70.6558V14.59H73.1558ZM71.7308 20.5865H73.0357C73.3587 20.606 73.6819 20.5525 73.9818 20.4301C74.2817 20.3076 74.5507 20.1192 74.7694 19.8786C74.988 19.638 75.1507 19.3512 75.2457 19.0391C75.3407 18.7271 75.3655 18.3975 75.3183 18.0746C75.362 17.7529 75.3347 17.4254 75.2383 17.1156C75.1419 16.8058 74.9788 16.5214 74.7606 16.2827C74.5425 16.044 74.2747 15.8569 73.9765 15.7349C73.6783 15.6129 73.357 15.559 73.0357 15.5769H71.7308V20.5865Z" fill="white"/>
<path d="M77.6274 18.9374C77.5945 18.5911 77.6338 18.2417 77.7427 17.9116C77.8515 17.5815 78.0275 17.278 78.2595 17.0205C78.4914 16.7631 78.7741 16.5574 79.0895 16.4166C79.4048 16.2758 79.7458 16.2031 80.0906 16.2031C80.4355 16.2031 80.7765 16.2758 81.0918 16.4166C81.4072 16.5574 81.6899 16.7631 81.9218 17.0205C82.1537 17.278 82.3298 17.5815 82.4386 17.9116C82.5475 18.2417 82.5868 18.5911 82.5539 18.9374C82.5874 19.2841 82.5486 19.634 82.44 19.9647C82.3314 20.2953 82.1555 20.5994 81.9235 20.8573C81.6915 21.1153 81.4086 21.3214 81.093 21.4625C80.7773 21.6036 80.4359 21.6764 80.0906 21.6764C79.7454 21.6764 79.404 21.6036 79.0883 21.4625C78.7727 21.3214 78.4898 21.1153 78.2578 20.8573C78.0258 20.5994 77.8498 20.2953 77.7413 19.9647C77.6327 19.634 77.5939 19.2841 77.6274 18.9374ZM81.4936 18.9374C81.4936 17.7951 80.985 17.1271 80.0923 17.1271C79.1963 17.1271 78.6922 17.7951 78.6922 18.9375C78.6922 20.0889 79.1963 20.7518 80.0923 20.7518C80.985 20.7518 81.4936 20.0843 81.4936 18.9374H81.4936Z" fill="white"/>
<path d="M89.1028 21.5737H88.0335L86.9539 17.6931H86.8723L85.7973 21.5737H84.7381L83.2983 16.3047H84.3439L85.2796 20.3252H85.3567L86.4306 16.3047H87.4195L88.4934 20.3252H88.575L89.5061 16.3047H90.537L89.1028 21.5737Z" fill="white"/>
<path d="M91.7461 16.3023H92.7384V17.1398H92.8155C92.9461 16.839 93.1665 16.5868 93.446 16.4184C93.7254 16.2501 94.0499 16.1739 94.3742 16.2005C94.6283 16.1812 94.8835 16.2199 95.1209 16.3137C95.3582 16.4074 95.5716 16.5539 95.7452 16.7422C95.9189 16.9305 96.0483 17.1559 96.1239 17.4015C96.1995 17.6472 96.2194 17.9069 96.1821 18.1613V21.5742H95.1513V18.4226C95.1513 17.5754 94.7865 17.1541 94.0242 17.1541C93.8516 17.1459 93.6793 17.1756 93.5192 17.241C93.3591 17.3063 93.2148 17.4059 93.0963 17.5328C92.9779 17.6597 92.888 17.8109 92.8329 17.9761C92.7777 18.1414 92.7587 18.3167 92.7769 18.49V21.5742H91.7461L91.7461 16.3023Z" fill="white"/>
<path d="M97.8257 14.25H98.8562V21.5742H97.8257V14.25Z" fill="white"/>
<path d="M100.289 18.9375C100.257 18.5912 100.296 18.2418 100.405 17.9116C100.514 17.5815 100.69 17.278 100.922 17.0205C101.154 16.7631 101.436 16.5574 101.752 16.4166C102.067 16.2758 102.408 16.2031 102.753 16.2031C103.098 16.2031 103.439 16.2758 103.754 16.4166C104.07 16.5574 104.352 16.7631 104.584 17.0205C104.816 17.278 104.992 17.5815 105.101 17.9116C105.21 18.2418 105.249 18.5912 105.217 18.9375C105.25 19.2842 105.211 19.6341 105.103 19.9648C104.994 20.2954 104.818 20.5995 104.586 20.8574C104.354 21.1154 104.071 21.3215 103.755 21.4626C103.44 21.6036 103.098 21.6765 102.753 21.6765C102.408 21.6765 102.066 21.6036 101.751 21.4626C101.435 21.3215 101.152 21.1154 100.92 20.8574C100.688 20.5995 100.512 20.2954 100.403 19.9648C100.295 19.6341 100.256 19.2842 100.289 18.9375ZM104.156 18.9375C104.156 17.7952 103.647 17.1272 102.754 17.1272C101.858 17.1272 101.354 17.7952 101.354 18.9376C101.354 20.089 101.858 20.7519 102.754 20.7519C103.647 20.7519 104.156 20.0844 104.156 18.9375H104.156Z" fill="white"/>
<path d="M106.303 20.0857C106.303 19.1367 107.003 18.5897 108.245 18.5119L109.66 18.4296V17.9746C109.66 17.4178 109.296 17.1034 108.591 17.1034C108.016 17.1034 107.617 17.3167 107.502 17.6894H106.504C106.61 16.7839 107.454 16.2031 108.639 16.2031C109.948 16.2031 110.687 16.8611 110.687 17.9746V21.5765H109.694V20.8356H109.613C109.447 21.1014 109.215 21.318 108.939 21.4634C108.663 21.6088 108.355 21.6778 108.044 21.6633C107.825 21.6863 107.603 21.6627 107.393 21.594C107.184 21.5253 106.99 21.413 106.826 21.2644C106.662 21.1157 106.531 20.934 106.441 20.731C106.351 20.528 106.304 20.3081 106.303 20.0857ZM109.66 19.6352V19.1945L108.385 19.2768C107.665 19.3254 107.339 19.5723 107.339 20.0371C107.339 20.5115 107.747 20.7876 108.308 20.7876C108.472 20.8044 108.638 20.7876 108.796 20.7384C108.954 20.6891 109.1 20.6083 109.226 20.5008C109.352 20.3933 109.456 20.2612 109.53 20.1125C109.605 19.9638 109.649 19.8015 109.66 19.6352Z" fill="white"/>
<path d="M112.042 18.9392C112.042 17.2742 112.89 16.2195 114.21 16.2195C114.536 16.2043 114.86 16.2832 115.144 16.4469C115.427 16.6106 115.659 16.8523 115.812 17.1439H115.889V14.25H116.919V21.576H115.932V20.7435H115.85C115.686 21.0331 115.446 21.2719 115.157 21.4339C114.868 21.5959 114.54 21.6751 114.21 21.6628C112.881 21.6629 112.042 20.6081 112.042 18.9392ZM113.106 18.9392C113.106 20.0568 113.629 20.7293 114.502 20.7293C115.371 20.7293 115.908 20.0471 115.908 18.9438C115.908 17.8456 115.365 17.1537 114.502 17.1537C113.634 17.1537 113.106 17.8307 113.106 18.9392H113.106Z" fill="white"/>
<path d="M121.185 18.9374C121.152 18.5911 121.191 18.2417 121.3 17.9116C121.409 17.5815 121.585 17.278 121.817 17.0205C122.049 16.7631 122.332 16.5574 122.647 16.4166C122.962 16.2758 123.303 16.2031 123.648 16.2031C123.993 16.2031 124.334 16.2758 124.649 16.4166C124.965 16.5574 125.248 16.7631 125.479 17.0205C125.711 17.278 125.887 17.5815 125.996 17.9116C126.105 18.2417 126.144 18.5911 126.112 18.9374C126.145 19.2841 126.106 19.634 125.998 19.9647C125.889 20.2953 125.713 20.5994 125.481 20.8573C125.249 21.1153 124.966 21.3214 124.651 21.4625C124.335 21.6036 123.994 21.6764 123.648 21.6764C123.303 21.6764 122.962 21.6036 122.646 21.4625C122.33 21.3214 122.047 21.1153 121.815 20.8573C121.583 20.5994 121.407 20.2953 121.299 19.9647C121.19 19.634 121.152 19.2841 121.185 18.9374ZM125.051 18.9374C125.051 17.7951 124.543 17.1271 123.65 17.1271C122.754 17.1271 122.25 17.7951 122.25 18.9375C122.25 20.0889 122.754 20.7518 123.65 20.7518C124.543 20.7518 125.051 20.0843 125.051 18.9374Z" fill="white"/>
<path d="M127.494 16.3023H128.486V17.1398H128.564C128.694 16.839 128.915 16.5868 129.194 16.4184C129.473 16.2501 129.798 16.1739 130.122 16.2005C130.376 16.1812 130.632 16.2199 130.869 16.3137C131.106 16.4074 131.32 16.5539 131.493 16.7422C131.667 16.9305 131.796 17.1559 131.872 17.4015C131.948 17.6472 131.967 17.9069 131.93 18.1613V21.5742H130.899V18.4226C130.899 17.5754 130.535 17.1541 129.772 17.1541C129.6 17.1459 129.427 17.1756 129.267 17.241C129.107 17.3063 128.963 17.4059 128.844 17.5328C128.726 17.6597 128.636 17.8109 128.581 17.9761C128.526 18.1414 128.507 18.3167 128.525 18.49V21.5742H127.494V16.3023Z" fill="white"/>
<path d="M137.754 14.9922V16.3287H138.885V17.205H137.754V19.9157C137.754 20.4679 137.979 20.7097 138.492 20.7097C138.624 20.7093 138.755 20.7013 138.885 20.6857V21.5523C138.7 21.5857 138.513 21.6035 138.325 21.6055C137.178 21.6055 136.722 21.1985 136.722 20.1821V17.205H135.893V16.3286H136.722V14.9922H137.754Z" fill="white"/>
<path d="M140.294 14.25H141.316V17.153H141.398C141.535 16.8496 141.761 16.5962 142.046 16.4273C142.331 16.2585 142.661 16.1823 142.99 16.2093C143.243 16.1954 143.496 16.238 143.731 16.334C143.965 16.4299 144.176 16.577 144.348 16.7645C144.52 16.9521 144.648 17.1756 144.725 17.4191C144.801 17.6626 144.823 17.9201 144.789 18.1732V21.5742H143.757V18.4296C143.757 17.5882 143.369 17.1621 142.64 17.1621C142.463 17.1474 142.285 17.172 142.118 17.2341C141.952 17.2961 141.8 17.3942 141.675 17.5214C141.55 17.6486 141.453 17.8019 141.393 17.9705C141.333 18.1391 141.31 18.319 141.325 18.4976V21.5742H140.294L140.294 14.25Z" fill="white"/>
<path d="M150.8 20.1508C150.66 20.6323 150.357 21.0488 149.943 21.3275C149.529 21.6061 149.032 21.7291 148.537 21.675C148.193 21.6842 147.851 21.6177 147.535 21.4802C147.219 21.3427 146.936 21.1374 146.707 20.8787C146.477 20.62 146.306 20.314 146.206 19.9819C146.105 19.6498 146.077 19.2997 146.124 18.9557C146.079 18.6107 146.107 18.2598 146.207 17.9267C146.307 17.5936 146.477 17.2862 146.706 17.0252C146.934 16.7642 147.215 16.5557 147.531 16.4139C147.846 16.2721 148.188 16.2002 148.533 16.2032C149.986 16.2032 150.863 17.2047 150.863 18.8591V19.2219H147.174V19.2802C147.158 19.4735 147.182 19.6681 147.245 19.8515C147.308 20.0349 147.408 20.2031 147.539 20.3452C147.67 20.4873 147.829 20.6002 148.006 20.6767C148.182 20.7532 148.373 20.7917 148.565 20.7895C148.812 20.8194 149.062 20.7746 149.283 20.6608C149.504 20.5471 149.687 20.3696 149.808 20.1508L150.8 20.1508ZM147.174 18.453H149.813C149.826 18.2761 149.802 18.0985 149.743 17.9315C149.684 17.7646 149.591 17.6119 149.469 17.4834C149.348 17.3548 149.202 17.2533 149.04 17.1852C148.877 17.1171 148.703 17.0841 148.527 17.0881C148.349 17.0859 148.172 17.1196 148.007 17.1874C147.841 17.2552 147.691 17.3557 147.565 17.4829C147.439 17.6101 147.34 17.7614 147.273 17.928C147.206 18.0947 147.172 18.2731 147.174 18.453H147.174Z" fill="white"/>
</svg>
