<svg width="196" height="58" viewBox="0 0 196 58" fill="none" xmlns="http://www.w3.org/2000/svg">
<rect width="196" height="58" rx="29" fill="black"/>
<path d="M53.7772 33.0695L49.3828 28.6315L53.7737 24.1718C56.91 25.9172 59.3181 27.2508 59.7808 27.4954C61.2751 28.3066 60.5157 29.3509 59.7808 29.7457C59.6218 29.8255 58.2957 30.5614 56.3282 31.6532L56.3265 31.6541C56.0098 31.8299 55.6766 32.015 55.3289 32.2081C54.8383 32.4805 54.319 32.7689 53.7772 33.0695Z" fill="white"/>
<path d="M52.9771 33.5131L48.7649 29.2591L34.6894 43.5552C34.859 43.5036 35.039 43.4254 35.2312 43.3188C35.3752 43.2393 35.7255 43.0461 36.2403 42.7621L36.2709 42.7452C39.1679 41.1472 47.1222 36.7597 52.9771 33.5131Z" fill="white"/>
<path d="M33.5394 43.4679C33.1264 43.1868 32.9102 42.599 32.9102 41.8567V15.5224C32.9102 14.7015 33.1968 14.1964 33.5937 13.9374L48.1452 28.6333L33.5394 43.4679Z" fill="white"/>
<path d="M34.671 13.7737L48.7631 28.0056L52.9592 23.7438C50.3573 22.3107 36.1707 14.4976 35.231 13.9929C35.0524 13.8858 34.8623 13.8137 34.671 13.7737Z" fill="white"/>
<path d="M97.3086 30.3331C94.6654 30.3331 92.4815 32.3793 92.4815 35.1849C92.4815 37.9675 94.6425 40.0366 97.3089 40.0366C99.975 40.0366 102.136 37.9904 102.136 35.1849C102.136 32.3793 99.975 30.3331 97.3086 30.3331ZM97.3086 38.106C95.8602 38.106 94.5967 36.8869 94.5967 35.1632C94.5967 33.4156 95.8612 32.2204 97.3086 32.2204C98.7561 32.2204 100.021 33.4156 100.021 35.1632C100.021 36.8869 98.7561 38.106 97.3086 38.106ZM86.8039 30.3331C84.1375 30.3331 81.9764 32.3793 81.9764 35.1849C81.9764 37.9675 84.1375 40.0366 86.8039 40.0366C89.47 40.0366 91.631 37.9904 91.631 35.1849C91.631 32.3793 89.47 30.3331 86.8036 30.3331H86.8039ZM86.8039 38.106C85.3551 38.106 84.0919 36.8869 84.0919 35.1632C84.0919 33.4156 85.3564 32.2204 86.8039 32.2204C88.2523 32.2204 89.5158 33.4156 89.5158 35.1632C89.5158 36.8869 88.274 38.106 86.8039 38.106ZM74.3221 31.8279V33.8741H79.1948C79.0563 35.0237 78.6667 35.8745 78.0916 36.4498C77.3793 37.1623 76.2759 37.9446 74.3221 37.9446C71.3103 37.9446 68.9895 35.5074 68.9895 32.4949C68.9895 29.4824 71.3116 26.9991 74.3221 26.9991C75.9535 26.9991 77.1266 27.6431 78 28.4712L79.4475 27.022C78.2288 25.8497 76.5973 24.9531 74.3221 24.9531C70.2069 24.9531 66.7588 28.3327 66.7588 32.4491C66.7588 36.5656 70.2069 39.9452 74.3221 39.9452C76.5515 39.9452 78.2071 39.2098 79.5401 37.8293C80.8962 36.4727 81.31 34.5637 81.31 33.0234C81.31 32.5407 81.2644 32.1036 81.1947 31.7355L74.3221 31.8279ZM125.398 33.4144C125.007 32.3335 123.766 30.3331 121.283 30.3331C118.8 30.3331 116.754 32.2879 116.754 35.1849C116.754 37.8978 118.8 40.0366 121.513 40.0366C123.72 40.0366 124.984 38.68 125.512 37.8978L123.881 36.7942C123.329 37.5994 122.594 38.1276 121.513 38.1276C120.433 38.1276 119.675 37.645 119.191 36.6558L125.604 33.9658L125.398 33.4144ZM118.87 35.0476C118.824 33.1845 120.318 32.2192 121.375 32.2192C122.225 32.2192 122.915 32.6331 123.167 33.2542L118.87 35.0476ZM113.652 39.7151H115.767V25.5043H113.652V39.7151ZM110.204 31.414H110.136C109.653 30.8387 108.757 30.3331 107.607 30.3331C105.193 30.3331 103.009 32.472 103.009 35.1849C103.009 37.8978 105.216 40.014 107.607 40.014C108.756 40.014 109.652 39.5081 110.136 38.9099H110.204V39.5998C110.204 41.4629 109.215 42.4509 107.63 42.4509C106.342 42.4509 105.537 41.5085 105.216 40.7262L103.378 41.5085C103.906 42.7964 105.309 44.3828 107.63 44.3828C110.112 44.3828 112.204 42.9109 112.204 39.347V30.6317H110.204V31.414ZM107.791 38.106C106.342 38.106 105.125 36.8869 105.125 35.1861C105.125 33.4854 106.343 32.2431 107.791 32.2431C109.217 32.2431 110.366 33.4854 110.366 35.1861C110.365 36.864 109.215 38.106 107.791 38.106ZM135.259 25.5045H130.202V39.7151H132.318V34.3339H135.259C137.604 34.3339 139.903 32.6318 139.903 29.9192C139.903 27.2063 137.604 25.5043 135.259 25.5043V25.5045ZM135.328 32.3577H132.339V27.4817H135.328C136.891 27.4817 137.81 28.7925 137.81 29.9189C137.788 31.0227 136.892 32.3577 135.328 32.3577ZM148.339 30.3102C146.822 30.3102 145.236 30.9772 144.592 32.4949L146.455 33.2771C146.869 32.4949 147.604 32.2421 148.386 32.2421C149.489 32.2421 150.593 32.9088 150.615 34.0811V34.2196C150.224 33.9897 149.421 33.6672 148.409 33.6672C146.386 33.6672 144.34 34.7939 144.34 36.864C144.34 38.7727 145.995 39.9911 147.834 39.9911C149.259 39.9911 150.04 39.347 150.523 38.5887H150.592V39.6924H152.637V34.2422C152.614 31.7363 150.753 30.3099 148.339 30.3099V30.3102ZM148.087 38.0831C147.397 38.0831 146.431 37.7376 146.431 36.8879C146.431 35.7841 147.626 35.3702 148.66 35.3702C149.58 35.3702 150.016 35.5771 150.592 35.8528C150.431 37.1636 149.304 38.0831 148.087 38.0831ZM160.016 30.633L157.602 36.7723H157.534L155.029 30.6327H152.754L156.523 39.2324L154.385 44.0386H156.591L162.361 30.6327H160.016L160.016 30.633ZM141.075 39.7151H143.191V25.5043H141.075V39.7151Z" fill="white"/>
<path d="M70.9151 21.0278C70.2763 21.0278 69.6877 20.8757 69.1491 20.5715C68.6106 20.2673 68.1816 19.8514 67.8622 19.3237C67.5491 18.7898 67.3926 18.197 67.3926 17.5451C67.3926 16.8933 67.5491 16.3036 67.8622 15.7759C68.1816 15.242 68.6106 14.823 69.1491 14.5188C69.6877 14.2146 70.2763 14.0625 70.9151 14.0625C71.4223 14.0625 71.8951 14.1525 72.3335 14.3325C72.7718 14.5126 73.1382 14.764 73.4325 15.0868L72.6998 15.8131C72.4806 15.571 72.2176 15.3848 71.9108 15.2544C71.6102 15.1241 71.2752 15.0589 70.9057 15.0589C70.4736 15.0589 70.0697 15.1613 69.694 15.3662C69.3182 15.571 69.0176 15.8628 68.7922 16.2415C68.5667 16.6202 68.454 17.0547 68.454 17.5451C68.454 18.0356 68.5667 18.4701 68.7922 18.8488C69.0176 19.2275 69.3182 19.5193 69.694 19.7241C70.0697 19.929 70.4767 20.0314 70.9151 20.0314C71.3159 20.0314 71.6509 19.9724 71.9202 19.8545C72.1895 19.7365 72.4306 19.5782 72.6435 19.3796C72.7812 19.243 72.8971 19.0723 72.991 18.8674C73.0912 18.6626 73.157 18.4391 73.1883 18.197H70.9057V17.2658H74.184C74.2153 17.4396 74.2309 17.6196 74.2309 17.8059C74.2309 18.228 74.1652 18.6346 74.0337 19.0257C73.9022 19.4106 73.6924 19.7459 73.4043 20.0314C72.7718 20.6957 71.9421 21.0278 70.9151 21.0278Z" fill="white"/>
<path d="M75.2106 14.2115H79.2967V15.2079H76.2626V17.0516H78.9961V18.0387H76.2626V19.8824H79.2967V20.8788H75.2106V14.2115Z" fill="white"/>
<path d="M81.7316 15.2079H79.8529V14.2115H84.6623V15.2079H82.7837V20.8788H81.7316V15.2079Z" fill="white"/>
<path d="M87.4128 14.2115H88.4648V20.8788H87.4128V14.2115Z" fill="white"/>
<path d="M91.1268 15.2079H89.2481V14.2115H94.0575V15.2079H92.1789V20.8788H91.1268V15.2079Z" fill="white"/>
<path d="M99.7713 21.0278C99.12 21.0278 98.5282 20.8757 97.9959 20.5715C97.4636 20.2611 97.0441 19.839 96.7372 19.3051C96.4366 18.7712 96.2863 18.1846 96.2863 17.5451C96.2863 16.9057 96.4366 16.3222 96.7372 15.7945C97.0441 15.2606 97.4636 14.8385 97.9959 14.5281C98.5282 14.2177 99.12 14.0625 99.7713 14.0625C100.423 14.0625 101.011 14.2177 101.537 14.5281C102.07 14.8385 102.489 15.2606 102.796 15.7945C103.103 16.3222 103.256 16.9057 103.256 17.5451C103.256 18.1846 103.103 18.7712 102.796 19.3051C102.495 19.839 102.079 20.2611 101.547 20.5715C101.014 20.8757 100.423 21.0278 99.7713 21.0278ZM99.7713 20.0314C100.216 20.0314 100.623 19.9259 100.992 19.7148C101.362 19.5037 101.653 19.212 101.866 18.8395C102.079 18.4608 102.185 18.0294 102.185 17.5451C102.185 17.0609 102.079 16.6326 101.866 16.2601C101.653 15.8814 101.362 15.5865 100.992 15.3755C100.623 15.1644 100.216 15.0589 99.7713 15.0589C99.3267 15.0589 98.9196 15.1644 98.5501 15.3755C98.1807 15.5865 97.8863 15.8814 97.6672 16.2601C97.4542 16.6326 97.3478 17.0609 97.3478 17.5451C97.3478 18.0294 97.4542 18.4608 97.6672 18.8395C97.8863 19.212 98.1807 19.5037 98.5501 19.7148C98.9196 19.9259 99.3267 20.0314 99.7713 20.0314Z" fill="white"/>
<path d="M104.224 14.2115H105.473L108.479 19.063H108.535L108.479 17.7779V14.2115H109.521V20.8788H108.422L105.266 15.7759H105.21L105.266 17.0609V20.8788H104.224V14.2115Z" fill="white"/>
</svg>
